<?xml version="1.0" encoding="UTF-8" standalone="no"?>
<svg
   width="245px"
   height="104px"
   viewBox="0 0 245 104"
   version="1.1"
   id="svg38"
   sodipodi:docname="Made for Matrix - Preferred.svg"
   inkscape:version="1.1.1 (3bf5ae0d25, 2021-09-20)"
   xmlns:inkscape="http://www.inkscape.org/namespaces/inkscape"
   xmlns:sodipodi="http://sodipodi.sourceforge.net/DTD/sodipodi-0.dtd"
   xmlns="http://www.w3.org/2000/svg"
   xmlns:svg="http://www.w3.org/2000/svg"
   xmlns:rdf="http://www.w3.org/1999/02/22-rdf-syntax-ns#"
   xmlns:cc="http://creativecommons.org/ns#"
   xmlns:dc="http://purl.org/dc/elements/1.1/">
  <defs
     id="defs42" />
  <sodipodi:namedview
     id="namedview40"
     pagecolor="#ffffff"
     bordercolor="#666666"
     borderopacity="1.0"
     inkscape:pageshadow="2"
     inkscape:pageopacity="0.0"
     inkscape:pagecheckerboard="0"
     showgrid="false"
     inkscape:zoom="2.4632653"
     inkscape:cx="102.7092"
     inkscape:cy="52.572494"
     inkscape:window-width="1888"
     inkscape:window-height="1060"
     inkscape:window-x="32"
     inkscape:window-y="0"
     inkscape:window-maximized="1"
     inkscape:current-layer="Made-for-Matrix-—-Preferred" />
  <!-- Generator: Sketch 52.2 (67145) - http://www.bohemiancoding.com/sketch -->
  <title
     id="title2">Made for Matrix — Preferred</title>
  <desc
     id="desc4">Created with Sketch.</desc>
  <g
     id="Page-1"
     stroke="none"
     stroke-width="1"
     fill="none"
     fill-rule="evenodd">
    <g
       id="Made-for-Matrix-—-Preferred"
       fill="#000000"
       fill-rule="nonzero">
      <polygon
         id="Shape"
         points="2.76012658 2.37626113 2.76012658 101.562018 9.92405063 101.562018 9.92405063 103.938279 0 103.938279 0 0 9.92405063 0 9.92405063 2.37626113" />
      <path
         d="m 30.392405,40.041543 v 5.030267 h 0.155063 c 1.333545,-1.913353 2.977216,-3.394659 4.868988,-4.443917 1.891772,-1.049258 4.062658,-1.573887 6.512658,-1.573887 2.356962,0 4.496835,0.462908 6.450633,1.357863 1.953797,0.894956 3.411392,2.499704 4.43481,4.814244 1.116456,-1.635609 2.605063,-3.055193 4.496835,-4.289615 1.891773,-1.234421 4.155697,-1.851632 6.729747,-1.851632 1.98481,0 3.783545,0.246885 5.489241,0.709793 1.674683,0.462908 3.132278,1.234421 4.310759,2.283679 1.209494,1.049258 2.139874,2.437982 2.822152,4.135312 0.682279,1.697329 1.023418,3.734124 1.023418,6.141246 v 24.81187 H 67.452532 V 56.150742 c 0,-1.234422 -0.06203,-2.407122 -0.155064,-3.518101 -0.09304,-1.110979 -0.372152,-2.067656 -0.806329,-2.87003 -0.434177,-0.802374 -1.05443,-1.450445 -1.922785,-1.944213 -0.837341,-0.462908 -1.98481,-0.709793 -3.411392,-0.709793 -1.426582,0 -2.605063,0.277745 -3.50443,0.833235 -0.899367,0.555489 -1.581646,1.265282 -2.077849,2.160237 -0.496202,0.894956 -0.837341,1.882493 -1.023417,3.024332 -0.155064,1.11098 -0.248101,2.252819 -0.248101,3.394659 V 77.166766 H 44.068987 v -20.8 c 0,-1.11098 -0.03101,-2.191098 -0.06202,-3.271217 -0.06202,-1.080119 -0.248101,-2.067656 -0.620253,-2.962611 -0.372152,-0.894956 -0.961393,-1.635609 -1.798734,-2.191098 -0.837342,-0.55549 -2.077848,-0.833235 -3.721519,-0.833235 -0.496203,0 -1.116456,0.09258 -1.922785,0.308606 -0.806329,0.216023 -1.550633,0.61721 -2.294937,1.20356 -0.744304,0.586351 -1.395569,1.450446 -1.922785,2.592285 -0.527215,1.11098 -0.806329,2.592285 -0.806329,4.413057 V 77.135905 H 20.685443 V 40.041543 Z"
         id="path7" />
      <path
         d="m 84.199367,45.503858 c 1.054431,-1.573888 2.387975,-2.83917 4.031646,-3.795846 1.643671,-0.956677 3.473417,-1.635608 5.520253,-2.036795 2.046835,-0.401187 4.093671,-0.617211 6.171519,-0.617211 1.860755,0 3.783545,0.123442 5.706325,0.401187 1.92279,0.277745 3.69051,0.771513 5.27216,1.543027 1.58164,0.771513 2.88417,1.820771 3.87658,3.178635 1.02342,1.357863 1.51962,3.178635 1.51962,5.400593 v 19.287834 c 0,1.666469 0.093,3.271217 0.27911,4.814243 0.18608,1.543027 0.52722,2.684867 1.02342,3.45638 h -10.38924 c -0.18608,-0.58635 -0.34114,-1.1727 -0.46519,-1.75905 -0.12405,-0.586351 -0.21709,-1.203561 -0.2481,-1.820772 -1.64367,1.666469 -3.56646,2.839169 -5.76836,3.518101 -2.201895,0.678932 -4.465819,1.018398 -6.760756,1.018398 -1.767721,0 -3.442405,-0.216024 -4.962025,-0.648072 -1.550633,-0.432047 -2.884177,-1.110979 -4.031646,-2.005934 -1.147468,-0.894956 -2.046835,-2.067656 -2.698101,-3.42552 -0.651266,-1.357863 -0.961392,-3.024332 -0.961392,-4.937685 0,-2.098516 0.372152,-3.826706 1.116456,-5.18457 0.744303,-1.357863 1.705696,-2.437982 2.884177,-3.271216 1.178481,-0.802374 2.512025,-1.419585 4.031645,-1.820772 1.519621,-0.401187 3.039241,-0.740653 4.589874,-0.956677 1.550633,-0.246884 3.03924,-0.432047 4.527848,-0.58635 1.488607,-0.154302 2.82215,-0.370326 3.96962,-0.648071 1.14747,-0.277745 2.07785,-0.709792 2.72911,-1.265282 0.68228,-0.555489 0.99241,-1.357863 0.93038,-2.407121 0,-1.11098 -0.18607,-1.975075 -0.52721,-2.623146 -0.37215,-0.648071 -0.83734,-1.14184 -1.42658,-1.512166 -0.58924,-0.370326 -1.30253,-0.58635 -2.07785,-0.709792 -0.80633,-0.123442 -1.64367,-0.185164 -2.54304,-0.185164 -2.015822,0 -3.597468,0.432048 -4.744937,1.296143 -1.147468,0.864095 -1.829746,2.283679 -2.015822,4.289614 H 82.524683 c 0.03101,-2.437982 0.620254,-4.413056 1.674684,-5.986943 z m 20.220253,14.350148 c -0.65127,0.216024 -1.33354,0.401187 -2.07785,0.524629 -0.7443,0.154303 -1.51962,0.277745 -2.35696,0.370326 -0.806329,0.09258 -1.643671,0.216024 -2.45,0.370327 -0.775316,0.154302 -1.51962,0.339466 -2.263924,0.58635 -0.744304,0.246884 -1.39557,0.55549 -1.953797,0.956677 -0.558228,0.401186 -0.992405,0.925816 -1.333545,1.543026 -0.341139,0.617211 -0.496202,1.419585 -0.496202,2.376261 0,0.894956 0.155063,1.666469 0.496202,2.28368 0.34114,0.617211 0.806329,1.110979 1.364557,1.481306 0.558228,0.370326 1.240507,0.61721 2.015823,0.740652 0.775316,0.154303 1.550633,0.216024 2.387975,0.216024 2.015822,0 3.566451,-0.339466 4.682911,-1.018398 1.11646,-0.678931 1.92279,-1.481305 2.45,-2.407121 0.52722,-0.925816 0.83734,-1.882493 0.96139,-2.839169 0.12405,-0.956677 0.18608,-1.72819 0.18608,-2.28368 V 58.95905 c -0.43418,0.401187 -0.96139,0.678932 -1.61266,0.894956 z"
         id="path9" />
      <path
         d="m 143.21646,40.041543 v 6.820178 h -7.50507 v 18.362018 c 0,1.72819 0.27912,2.87003 0.86836,3.425519 0.58924,0.58635 1.73671,0.864095 3.47341,0.864095 0.58924,0 1.11646,-0.03086 1.64367,-0.06172 0.52722,-0.06172 1.02342,-0.123442 1.51963,-0.216024 v 7.900297 c -0.86836,0.154303 -1.82975,0.246884 -2.88418,0.277745 -1.05443,0.03086 -2.07785,0.06172 -3.10127,0.06172 -1.58164,0 -3.10126,-0.123442 -4.49683,-0.308605 -1.42659,-0.216024 -2.66709,-0.617211 -3.75253,-1.265282 -1.08545,-0.617211 -1.92279,-1.512167 -2.54304,-2.654006 -0.62026,-1.14184 -0.93038,-2.654006 -0.93038,-4.505638 V 46.861721 h -6.20253 v -6.820178 h 6.20253 V 28.931751 h 10.23417 v 11.109792 z"
         id="path11" />
      <path
         d="m 157.85443,40.041543 v 6.881899 h 0.15506 c 0.46519,-1.14184 1.11646,-2.221958 1.9538,-3.178635 0.80633,-0.987537 1.76772,-1.820771 2.82215,-2.499703 1.05443,-0.678932 2.17089,-1.234422 3.38038,-1.604748 1.2095,-0.370326 2.45,-0.58635 3.75253,-0.58635 0.68228,0 1.42659,0.123442 2.23292,0.370326 v 9.474184 c -0.49621,-0.09258 -1.05444,-0.185163 -1.73671,-0.246884 -0.68228,-0.06172 -1.33355,-0.123442 -1.9538,-0.123442 -1.86076,0 -3.47342,0.308605 -4.74494,0.925816 -1.30253,0.617211 -2.32595,1.481306 -3.13228,2.530564 -0.80633,1.080118 -1.36455,2.3454 -1.70569,3.764985 -0.34114,1.419584 -0.4962,2.993472 -0.4962,4.659941 V 77.105044 H 148.14747 V 40.041543 Z"
         id="path13" />
      <path
         d="m 176.43101,34.301484 v -8.394066 h 10.23418 v 8.394066 z m 10.23418,5.740059 V 77.105044 H 176.43101 V 40.041543 Z"
         id="path15" />
      <polygon
         id="polygon17"
         points="203.66013,42.921068 210.2038,52.611276 216.68544,42.921068 228.00506,42.921068 215.75506,60.264688 229.52468,79.98457 217.86392,79.98457 210.07975,68.288427 202.29557,79.98457 190.8519,79.98457 204.24937,60.480712 191.99937,42.921068 "
         transform="translate(0,-2.8795252)" />
      <polygon
         id="polygon19"
         points="242.022785 101.562018 242.022785 2.37626113 234.858861 2.37626113 234.858861 0 244.782911 0 244.782911 103.938279 234.858861 103.938279 234.858861 101.562018" />
    </g>
  </g>
  <metadata
     id="metadata859">
    <rdf:RDF>
      <cc:Work
         rdf:about="">
        <dc:title>Made for Matrix — Preferred</dc:title>
      </cc:Work>
    </rdf:RDF>
  </metadata>
</svg>
